<?xml version="1.0" encoding="utf-8"?>
<!-- Generator: Adobe Illustrator 18.1.1, SVG Export Plug-In . SVG Version: 6.00 Build 0)  -->
<!DOCTYPE svg PUBLIC "-//W3C//DTD SVG 1.1//EN" "http://www.w3.org/Graphics/SVG/1.1/DTD/svg11.dtd">
<svg version="1.1" id="Layer_1" xmlns="http://www.w3.org/2000/svg" xmlns:xlink="http://www.w3.org/1999/xlink" x="0px" y="0px"
	 width="16.7px" height="21px" viewBox="0 0 16.7 21" enable-background="new 0 0 16.7 21" xml:space="preserve">
<g>
	<path fill="#FFFFFF" d="M6,0.3C6,0.1,5.9,0,5.7,0H0.3C0.1,0,0,0.1,0,0.3v20.5C0,20.9,0.1,21,0.3,21h5.5C5.9,21,6,20.9,6,20.7V0.3z"
		/>
	<path fill="#FFFFFF" d="M16.7,0.3c0-0.1-0.1-0.3-0.3-0.3h-5.5c-0.1,0-0.3,0.1-0.3,0.3v20.5c0,0.1,0.1,0.3,0.3,0.3h5.5
		c0.1,0,0.3-0.1,0.3-0.3V0.3z"/>
</g>
</svg>
